<svg width="58" height="56" viewBox="0 0 58 56" fill="none" xmlns="http://www.w3.org/2000/svg">
<g clip-path="url(#clip0_20_163)">
<path d="M8.73276 34.6501C8.50548 34.6501 8.27296 34.5936 8.06135 34.4678L1.53012 30.6178C0.910959 30.2534 0.712409 29.4654 1.08338 28.8571C1.45436 28.2488 2.25639 28.046 2.87555 28.4156L9.40679 32.2656C10.0259 32.6301 10.2245 33.4181 9.85352 34.0264C9.60795 34.4268 9.17427 34.6501 8.73276 34.6501Z" fill="#008AB6"/>
<path d="M30.4581 8.98855C30.3327 8.98855 30.2047 8.97059 30.0767 8.93466C25.4317 7.53839 19.9063 7.32536 13.6572 8.30582C11.0264 8.71136 8.36168 7.99526 6.337 6.33976L1.36542 2.26904C0.811576 1.81474 0.735813 1.00624 1.19822 0.462111C1.66064 -0.0794546 2.48096 -0.159021 3.03742 0.297844L8.00899 4.36857C9.4537 5.5518 11.3713 6.07026 13.247 5.76996C19.8906 4.7356 25.8131 4.96916 30.8396 6.47579C31.5293 6.68369 31.9185 7.39979 31.7069 8.07739C31.5371 8.63179 31.0198 8.98855 30.4581 8.98855Z" fill="#008AB6"/>
<path d="M40.7384 48.7666C39.1788 48.7666 37.6452 48.2379 36.4278 47.2805L30.0925 41.9855C29.5439 41.5261 29.476 40.7176 29.9436 40.176C30.4112 39.637 31.2394 39.5729 31.7854 40.0297L38.0894 45.2991C38.8182 45.8714 39.7692 46.2 40.7384 46.2C41.8174 46.2 42.6952 45.3376 42.6952 44.2775C42.6952 43.7206 42.4522 43.1944 42.0264 42.8325L30.103 33.0689C29.5491 32.6146 29.4733 31.8061 29.9358 31.262C30.3982 30.723 31.2185 30.6434 31.7776 31.1003L43.667 40.8331C43.6827 40.8459 43.701 40.8613 43.7193 40.8767L46.465 43.1251C46.8647 43.4536 47.3768 43.6333 47.8993 43.6333H48.2859C49.5242 43.6333 50.5327 42.6426 50.5327 41.426C50.5327 40.7843 50.2583 40.1837 49.7724 39.7654L35.3279 27.9382C34.7741 27.4839 34.6983 26.6754 35.1607 26.1313C35.6258 25.5897 36.4461 25.5127 37.0026 25.9696L51.3974 37.7557C51.4235 37.7762 51.447 37.7967 51.4705 37.8147L51.6822 37.9867C52.0871 38.3178 52.6044 38.5 53.1347 38.5H53.4848C54.7388 38.5 55.7576 37.4964 55.7576 36.267C55.7576 35.6074 55.4729 34.9914 54.9739 34.5679L35.3018 17.6484C34.7584 17.1813 34.7036 16.3728 35.1816 15.8389C35.6545 15.3025 36.4801 15.2512 37.0261 15.7183L56.6903 32.6326C57.7562 33.5412 58.3701 34.863 58.3701 36.2567C58.3701 38.9132 56.1783 41.0667 53.4848 41.0667H53.1347C53.1452 41.1822 53.1452 41.3002 53.1452 41.4183C53.1452 44.0568 50.9663 46.2 48.2859 46.2H47.8993C46.9222 46.2 45.9712 45.9099 45.1692 45.3761C44.6702 47.3216 42.8728 48.7666 40.7384 48.7666Z" fill="#008AB6"/>
<path d="M33.5514 51.3333C32.5065 51.3333 31.5215 50.9329 30.7796 50.2065L27.433 47.1394C26.9053 46.6568 26.8791 45.8432 27.3703 45.3273C27.864 44.8063 28.687 44.7806 29.2173 45.2657L32.5953 48.3637C33.1543 48.9104 33.9799 48.8796 34.4737 48.3945C35.1425 47.7374 35.3959 46.4669 35.0562 46.1332C34.5468 45.6327 34.5468 44.8191 35.0562 44.3186C35.5657 43.8181 36.3938 43.8181 36.9033 44.3186C38.4525 45.8406 37.8725 48.6819 36.3207 50.2091C35.5814 50.9329 34.5964 51.3333 33.5514 51.3333Z" fill="#008AB6"/>
<path d="M55.7576 34.65C55.3135 34.65 54.8825 34.4267 54.6369 34.0263C54.2659 33.4206 54.4671 32.63 55.0836 32.2656L61.6149 28.4156C62.234 28.0434 63.036 28.2513 63.407 28.8571C63.778 29.4628 63.5768 30.2533 62.9603 30.6178L56.4291 34.4678C56.2201 34.5935 55.9875 34.65 55.7576 34.65Z" fill="#008AB6"/>
<path d="M24.2327 25.6667H23.1877C21.0272 25.6667 19.0835 24.486 18.1168 22.5893C17.0222 20.441 17.448 17.8564 19.1775 16.1572L26.098 9.36071C26.1738 9.28627 26.2574 9.21954 26.3488 9.16821C26.8243 8.88844 27.3076 8.57788 27.8014 8.25961C30.069 6.79148 32.6371 5.13342 36.1639 5.13342C38.2095 5.13342 40.0931 5.74172 42.0865 6.38852C44.9262 7.30738 48.1318 8.34944 52.5835 7.76425L61.4398 0.308097C61.9884 -0.148768 62.8114 -0.0871682 63.2816 0.449264C63.7519 0.985696 63.6892 1.79676 63.1406 2.25876L53.9968 9.95874C53.8113 10.1153 53.584 10.218 53.3437 10.2513C48.0926 11.0444 44.3097 9.81244 41.2714 8.82428C39.4034 8.22111 37.7915 7.70008 36.1639 7.70008C33.4182 7.70008 31.2916 9.07324 29.2356 10.4002C28.7575 10.7082 28.2925 11.0085 27.8327 11.2857L21.0245 17.9719C20.0945 18.8856 19.8646 20.2818 20.4524 21.442C20.9723 22.4635 22.0199 23.1 23.1851 23.1H24.2301C24.9407 23.1 25.6069 22.869 26.1555 22.4301C26.6492 22.0349 27.2214 21.5652 27.8353 21.0621C31.1845 18.3107 33.8911 16.1495 35.7041 15.4822C36.3782 15.2255 37.1332 15.5695 37.3866 16.2317C37.64 16.8964 37.2978 17.6356 36.6237 17.8846C35.085 18.4544 31.7305 21.2084 29.5125 23.0333C28.8908 23.5441 28.3108 24.0215 27.804 24.4244C26.8008 25.2252 25.5311 25.6667 24.2327 25.6667Z" fill="#008AB6"/>
<path d="M11.2852 39.7834C9.1586 39.7834 7.42652 38.0817 7.42652 35.9898V35.4072C7.42652 34.6552 7.65119 33.9288 8.07442 33.3051L9.50084 31.2056C10.2167 30.1481 11.4158 29.5167 12.7116 29.5167C14.8382 29.5167 16.5702 31.2184 16.5702 33.3102V33.8929C16.5702 34.6449 16.3456 35.3713 15.9223 35.995L14.4959 38.0945C13.7801 39.152 12.581 39.7834 11.2852 39.7834ZM12.7116 32.0834C12.2936 32.0834 11.9069 32.2861 11.677 32.6275L10.248 34.7296C10.1122 34.9298 10.039 35.1659 10.039 35.4098V35.9924C10.039 36.67 10.5981 37.2193 11.2852 37.2193C11.7032 37.2193 12.0898 37.0165 12.3197 36.6751L13.7461 34.573C13.8846 34.3703 13.9578 34.1341 13.9578 33.8903V33.3077C13.9578 32.6326 13.3987 32.0834 12.7116 32.0834Z" fill="#008AB6"/>
<path d="M15.2927 43.6333C13.0773 43.6333 11.3453 41.9317 11.3453 39.8398V39.3368C11.3453 38.5206 11.6196 37.7095 12.1159 37.0576L14.7598 33.5977C15.4834 32.648 16.6382 32.0808 17.8478 32.0808C20.0631 32.0834 21.7952 33.7851 21.7952 35.8769V36.38C21.7952 37.1962 21.5209 38.0072 21.0245 38.6592L18.3807 42.119C17.657 43.0661 16.5023 43.6333 15.2927 43.6333ZM17.9366 34.65C17.4559 34.65 17.0849 34.8323 16.8498 35.1377L14.2059 38.6001C14.0466 38.8106 13.9578 39.0724 13.9578 39.3368V39.8398C13.9578 40.5174 14.5168 41.0667 15.2039 41.0667C15.6846 41.0667 16.0556 40.8845 16.2907 40.579L18.9346 37.1166C19.0939 36.9061 19.1827 36.6443 19.1827 36.38V35.8769C19.1827 35.1993 18.6237 34.65 17.9366 34.65Z" fill="#008AB6"/>
<path d="M20.5177 46.2C18.3023 46.2 16.5702 44.4983 16.5702 42.4065V41.9034C16.5702 41.0872 16.8446 40.2761 17.3409 39.6242L19.9848 36.1644C20.7084 35.2147 21.8632 34.6475 23.0727 34.6475C25.2881 34.65 27.0202 36.3517 27.0202 38.4436V38.9466C27.0202 39.7628 26.7459 40.5739 26.2495 41.2258L23.6057 44.6857C22.882 45.6328 21.7273 46.2 20.5177 46.2ZM23.1616 37.2167C22.6809 37.2167 22.3099 37.3989 22.0748 37.7044L19.4309 41.1668C19.2716 41.3772 19.1827 41.639 19.1827 41.9034V42.4065C19.1827 43.0841 19.7418 43.6333 20.4289 43.6333C20.9096 43.6333 21.2806 43.4511 21.5157 43.1457L24.1595 39.6833C24.3189 39.4728 24.4077 39.211 24.4077 38.9466V38.4436C24.4077 37.766 23.8486 37.2167 23.1616 37.2167Z" fill="#008AB6"/>
<path d="M25.7427 48.7667C23.5273 48.7667 21.7952 47.065 21.7952 44.9732V44.4701C21.7952 43.6539 22.0695 42.8429 22.5659 42.1909L25.2098 38.7311C25.9334 37.7814 27.0881 37.2142 28.2977 37.2142C30.5157 37.2142 32.2452 38.9159 32.2452 41.0077V41.5108C32.2452 42.327 31.9709 43.138 31.4745 43.79L28.8307 47.2498C28.107 48.1995 26.9523 48.7667 25.7427 48.7667ZM28.3866 39.7834C27.9059 39.7834 27.5349 39.9656 27.2998 40.2711L24.6559 43.7335C24.4965 43.944 24.4077 44.2058 24.4077 44.4701V44.9732C24.4077 45.6508 24.9668 46.2 25.6539 46.2C26.1346 46.2 26.5056 46.0178 26.7407 45.7124L29.3845 42.25C29.5439 42.0395 29.6327 41.7777 29.6327 41.5133V41.0103C29.6327 40.3327 29.0736 39.7834 28.3866 39.7834Z" fill="#008AB6"/>
</g>
<defs>
<clipPath id="clip0_20_163">
<rect width="57" height="56" fill="white" transform="translate(0.895294)"/>
</clipPath>
</defs>
</svg>
