<svg width="61" height="60" viewBox="0 0 61 60" fill="none" xmlns="http://www.w3.org/2000/svg">
<path d="M29.6453 60C28.9553 60 28.3953 59.44 28.3953 58.75V1.25C28.3953 0.56 28.9553 0 29.6453 0C30.3353 0 30.8953 0.56 30.8953 1.25V58.75C30.8953 59.44 30.3353 60 29.6453 60Z" fill="#008AB6"/>
<path d="M22.7753 28.755C22.6228 28.755 22.4728 28.7275 22.3228 28.67C16.8153 26.5375 13.3953 22.2575 13.3953 17.5C13.3953 10.6075 20.6853 5 29.6453 5C38.6053 5 45.8953 10.6075 45.8953 17.5C45.8953 18.19 45.3353 18.75 44.6453 18.75C43.9553 18.75 43.3953 18.19 43.3953 17.5C43.3953 11.985 37.2253 7.5 29.6453 7.5C22.0653 7.5 15.8953 11.985 15.8953 17.5C15.8953 21.2 18.7053 24.5875 23.2278 26.34C23.8728 26.59 24.1928 27.3125 23.9403 27.955C23.7503 28.4525 23.2753 28.755 22.7753 28.755Z" fill="#008AB6"/>
<path d="M29.6453 55C20.6853 55 13.3953 49.3925 13.3953 42.5C13.3953 41.81 13.9553 41.25 14.6453 41.25C15.3353 41.25 15.8953 41.81 15.8953 42.5C15.8953 48.015 22.0653 52.5 29.6453 52.5C37.2253 52.5 43.3953 48.015 43.3953 42.5C43.3953 38.8 40.5853 35.4125 36.0628 33.66C35.4178 33.41 35.0978 32.6875 35.3503 32.045C35.6003 31.4 36.3228 31.08 36.9653 31.3325C42.4753 33.4625 45.8953 37.7425 45.8953 42.5C45.8953 49.3925 38.6053 55 29.6453 55Z" fill="#008AB6"/>
<path d="M36.5153 33.745C36.3578 33.745 36.2003 33.715 36.0478 33.655C32.4628 32.21 30.7678 31.65 28.9728 31.0575C27.3153 30.51 25.6003 29.945 22.3203 28.67C21.6778 28.42 21.3578 27.695 21.6103 27.0525C21.8628 26.41 22.5878 26.085 23.2278 26.3425C26.4453 27.5925 28.1278 28.15 29.7553 28.6875C31.5878 29.2925 33.3228 29.865 36.9803 31.34C37.6228 31.6 37.9328 32.3275 37.6728 32.965C37.4778 33.45 37.0103 33.745 36.5153 33.745Z" fill="#008AB6"/>
</svg>
