<svg width="61" height="60" viewBox="0 0 61 60" fill="none" xmlns="http://www.w3.org/2000/svg">
<g clip-path="url(#clip0_20_56)">
<path d="M23.3953 50C23.0728 50 22.7528 49.875 22.5103 49.635L11.2603 38.385C10.8503 37.975 10.7778 37.335 11.0828 36.84C12.0178 35.335 34.2803 0 59.6453 0C60.3353 0 60.8953 0.56 60.8953 1.25C60.8953 26.615 25.5578 48.875 24.0553 49.8125C23.8528 49.9375 23.6228 50 23.3953 50ZM13.7453 37.33L23.5653 47.15C28.8253 43.68 57.2528 23.945 58.3628 2.5325C36.9353 3.645 17.2103 32.075 13.7453 37.33Z" fill="#008AB6"/>
<path d="M2.1453 42.5C1.8828 42.5 1.6178 42.415 1.4003 42.2525C1.0578 42 0.870296 41.5925 0.897796 41.1675C0.910296 40.9825 2.3478 22.5 22.1453 22.5C22.8353 22.5 23.3953 23.06 23.3953 23.75C23.3953 24.44 22.8353 25 22.1453 25C8.2028 25 4.5978 34.9625 3.6903 39.335L11.7053 36.3275C12.3453 36.09 13.0728 36.4125 13.3153 37.0575C13.5603 37.705 13.2328 38.425 12.5853 38.6675L2.5853 42.4175C2.4403 42.475 2.2953 42.5 2.1453 42.5Z" fill="#008AB6"/>
<path d="M19.6453 60C19.2528 60 18.8778 59.815 18.6428 59.495C18.3878 59.155 18.3278 58.71 18.4778 58.31L22.2278 48.31C22.4703 47.6625 23.1928 47.34 23.8378 47.58C24.4853 47.8225 24.8128 48.5425 24.5678 49.19L21.5653 57.2C25.9403 56.2725 35.8953 52.64 35.8953 38.75C35.8953 38.06 36.4553 37.5 37.1453 37.5C37.8353 37.5 38.3953 38.06 38.3953 38.75C38.3953 58.545 19.9128 59.985 19.7253 59.9975C19.6978 60 19.6728 60 19.6453 60Z" fill="#008AB6"/>
<path d="M2.34279 59.99C1.98279 59.99 1.54529 59.84 1.30529 59.5725C1.06779 59.3025 0.860291 58.95 0.905291 58.595C1.08029 57.185 2.79779 44.7575 8.49029 42.805C10.6428 42.065 12.9653 42.8675 15.3653 45.205C15.4403 45.2525 15.5103 45.305 15.5703 45.365C18.0278 47.8225 18.8903 50.19 18.1303 52.4025C16.1803 58.0975 3.75529 59.8125 2.34279 59.99ZM10.0553 45.0475C9.79529 45.0475 9.54279 45.0875 9.30029 45.17C6.45279 46.1475 4.45029 52.5475 3.62779 57.2775C8.28529 56.475 14.7853 54.46 15.7653 51.595C16.1728 50.4 15.5678 48.9575 13.9628 47.3C13.8903 47.2525 13.8203 47.1975 13.7578 47.135C12.3728 45.745 11.1303 45.0475 10.0553 45.0475Z" fill="#008AB6"/>
<path d="M40.8953 27.5C36.7603 27.5 33.3953 24.135 33.3953 20C33.3953 15.865 36.7603 12.5 40.8953 12.5C45.0303 12.5 48.3953 15.865 48.3953 20C48.3953 24.135 45.0303 27.5 40.8953 27.5ZM40.8953 15C38.1378 15 35.8953 17.2425 35.8953 20C35.8953 22.7575 38.1378 25 40.8953 25C43.6528 25 45.8953 22.7575 45.8953 20C45.8953 17.2425 43.6528 15 40.8953 15Z" fill="#008AB6"/>
</g>
<defs>
<clipPath id="clip0_20_56">
<rect width="60" height="60" fill="white" transform="translate(0.895294)"/>
</clipPath>
</defs>
</svg>
